<?xml version="1.0" encoding="utf-8"?>
<!-- Generator: Adobe Illustrator 19.0.0, SVG Export Plug-In . SVG Version: 6.00 Build 0)  -->
<svg version="1.1" id="Layer_1" xmlns="http://www.w3.org/2000/svg" xmlns:xlink="http://www.w3.org/1999/xlink" x="0px" y="0px"
	 viewBox="-246 320.9 102 200" style="enable-background:new -246 320.9 102 200;" xml:space="preserve">
<style type="text/css">
	.st0{fill:#FFFFFF;}
	.st1{opacity:0.3;}
	.st2{opacity:0.5;}
	.st3{clip-path:url(#XMLID_4_);}
	.st4{clip-path:url(#XMLID_5_);}
	.st5{fill:#7A7A7A;}
</style>
<g>
	<path class="st0" d="M-206.8,436.6c-7,2.3-13.3,6.6-17.9,12.3c-4.7,5.7-7.6,12.8-8.4,20.1c-0.5,4.7-0.1,9.6,1.2,14.2
		c1.7,6.1,4.9,11.7,9.3,16.2c4.2,4.4,9.4,7.7,15.1,9.7c9.3,3.3,19.9,2.7,28.8-1.6c9.6-4.5,17.2-13.2,20.2-23.4
		c2.8-9.1,2-19.3-2.2-27.9c-4.2-8.5-11.6-15.4-20.5-18.9C-189.3,434.2-198.5,433.9-206.8,436.6z"/>
	<circle class="st0" cx="-195.6" cy="472.4" r="40.6"/>
</g>
<g class="st1">
	<path class="st0" d="M-206.8,336.6c-7,2.3-13.3,6.6-17.9,12.3c-4.7,5.7-7.6,12.8-8.4,20.1c-0.5,4.7-0.1,9.6,1.2,14.2
		c1.7,6.1,4.9,11.7,9.3,16.2c4.2,4.4,9.4,7.7,15.1,9.7c9.3,3.3,19.9,2.7,28.8-1.6c9.6-4.5,17.2-13.2,20.2-23.4
		c2.8-9.1,2-19.3-2.2-27.9c-4.2-8.5-11.6-15.4-20.5-18.9C-189.3,334.2-198.5,333.9-206.8,336.6z"/>
	<circle class="st0" cx="-195.6" cy="372.4" r="40.6"/>
</g>
<g class="st2">
	<defs>
		<path id="XMLID_1_" class="st2" d="M-144.9,338.4l-12.7-5.8c-1.7-0.8-5.8,0.8-9,3.7l-34.5,29.7c-3.3,2.8-4.5,5.7-2.8,6.5l9.4,4.3
			l-21.5,11c-3,1.5-4.1,3.4-2.3,4.2l5.5,2.5l-24.6,21.9c-3.3,2.9-3.4,3.9-0.3,2.2l36.3-19.9c3.1-1.7,4.2-3.7,2.6-4.6
			c-1.6-0.9-2.9-1.5-2.9-1.5l26-16c3.1-1.9,4.2-4.1,2.5-4.8l-10.1-4l35.9-24C-144.4,341.6-143.2,339.2-144.9,338.4z"/>
	</defs>
	<use xlink:href="#XMLID_1_"  style="overflow:visible;fill:#7A7A7A;"/>
	<clipPath id="XMLID_4_">
		<use xlink:href="#XMLID_1_"  style="overflow:visible;"/>
	</clipPath>
	<g class="st3">
	</g>
</g>
<g>
	<defs>
		<path id="XMLID_2_" d="M-144.9,438.4l-12.7-5.8c-1.7-0.8-5.8,0.8-9,3.7l-34.5,29.7c-3.3,2.8-4.5,5.7-2.8,6.5l9.4,4.3l-21.5,11
			c-3,1.5-4.1,3.4-2.3,4.2l5.5,2.5l-24.6,21.9c-3.3,2.9-3.4,3.9-0.3,2.2l36.3-19.9c3.1-1.7,4.2-3.7,2.6-4.6
			c-1.6-0.9-2.9-1.5-2.9-1.5l26-16c3.1-1.9,4.2-4.1,2.5-4.8l-10.1-4l35.9-24C-144.4,441.6-143.2,439.2-144.9,438.4z"/>
	</defs>
	<use xlink:href="#XMLID_2_"  style="overflow:visible;fill:#7A7A7A;"/>
	<clipPath id="XMLID_5_">
		<use xlink:href="#XMLID_2_"  style="overflow:visible;"/>
	</clipPath>
	<g class="st4">
		<polygon class="st5" points="-193.2,555 -283.5,529.1 -184.4,387.5 -94.1,413.4 		"/>
	</g>
</g>
</svg>
